<svg xmlns="http://www.w3.org/2000/svg" viewBox="0 0 64 64" width="64" height="64">
  <defs>
    <linearGradient id="bg" x1="0" y1="0" x2="1" y2="1">
      <stop offset="0%" stop-color="#0f4f38" />
      <stop offset="100%" stop-color="#2f8b66" />
    </linearGradient>
    <linearGradient id="factory" x1="0" y1="0" x2="0" y2="1">
      <stop offset="0%" stop-color="#f2faf6" />
      <stop offset="100%" stop-color="#d7efe3" />
    </linearGradient>
  </defs>

  <rect x="4" y="4" width="56" height="56" rx="12" fill="url(#bg)" />

  <rect x="13" y="26" width="8" height="22" rx="1.5" fill="url(#factory)" />
  <path d="M13 48h38v-9l-8-5-8 5-8-5-14 9z" fill="url(#factory)" />
  <rect x="20" y="40" width="4" height="4" fill="#2f8b66" />
  <rect x="27" y="40" width="4" height="4" fill="#2f8b66" />
  <rect x="34" y="40" width="4" height="4" fill="#2f8b66" />
  <rect x="41" y="40" width="4" height="4" fill="#2f8b66" />
  <rect x="27" y="33" width="4" height="4" fill="#2f8b66" />
  <rect x="34" y="33" width="4" height="4" fill="#2f8b66" />

  <path
    fill="#114532"
    d="M46 14l1.9 1.2 2.2-.7 1.2 2 2.3.2.2 2.3 2 1.2-.7 2.2 1.2 1.9-1.2 1.9.7 2.2-2 1.2-.2 2.3-2.3.2-1.2 2-2.2-.7-1.9 1.2-1.9-1.2-2.2.7-1.2-2-2.3-.2-.2-2.3-2-1.2.7-2.2-1.2-1.9 1.2-1.9-.7-2.2 2-1.2.2-2.3 2.3-.2 1.2-2 2.2.7z"
  />
  <circle cx="46" cy="24" r="4.4" fill="#8fd6b8" />
  <circle cx="46" cy="24" r="2.1" fill="#0f4f38" />
</svg>
